<mxfile host="Electron" agent="Mozilla/5.0 (Windows NT 10.0; Win64; x64) AppleWebKit/537.36 (KHTML, like Gecko) draw.io/25.0.2 Chrome/128.0.6613.186 Electron/32.2.5 Safari/537.36" version="25.0.2">
  <diagram name="Page-1" id="Rti0Gzv8eqCfQsERd6Ty">
    <mxGraphModel dx="1688" dy="1521" grid="1" gridSize="5" guides="1" tooltips="1" connect="1" arrows="1" fold="1" page="1" pageScale="1" pageWidth="1169" pageHeight="827" math="0" shadow="0">
      <root>
        <mxCell id="0" />
        <mxCell id="1" parent="0" />
        <mxCell id="mwf5anlVQ01OuYbf6Bpb-7" value="" style="rounded=0;whiteSpace=wrap;html=1;spacing=2;strokeWidth=2;" parent="1" vertex="1">
          <mxGeometry x="160" y="140" width="860" height="470" as="geometry" />
        </mxCell>
        <mxCell id="mwf5anlVQ01OuYbf6Bpb-12" value="" style="rounded=0;whiteSpace=wrap;html=1;dashed=1;fillStyle=cross-hatch;fillColor=none;strokeWidth=2;" parent="1" vertex="1">
          <mxGeometry x="350" y="160" width="650" height="430" as="geometry" />
        </mxCell>
        <mxCell id="mwf5anlVQ01OuYbf6Bpb-27" style="edgeStyle=orthogonalEdgeStyle;rounded=0;orthogonalLoop=1;jettySize=auto;html=1;exitX=1;exitY=0.5;exitDx=0;exitDy=0;entryX=0;entryY=0.5;entryDx=0;entryDy=0;endArrow=block;endFill=1;dashed=1;" parent="1" source="mwf5anlVQ01OuYbf6Bpb-4" target="mwf5anlVQ01OuYbf6Bpb-8" edge="1">
          <mxGeometry relative="1" as="geometry" />
        </mxCell>
        <mxCell id="mwf5anlVQ01OuYbf6Bpb-4" value="&lt;font style=&quot;font-size: 14px;&quot; face=&quot;GOST type B&quot;&gt;Пьезочувствительный элемент&lt;/font&gt;" style="rounded=0;whiteSpace=wrap;html=1;" parent="1" vertex="1">
          <mxGeometry x="180" y="360" width="150" height="60" as="geometry" />
        </mxCell>
        <mxCell id="mwf5anlVQ01OuYbf6Bpb-5" value="&lt;font face=&quot;GOST type B&quot; style=&quot;font-size: 14px;&quot;&gt;Модуль на основе однокристальной микропроцессорной системы&lt;/font&gt;" style="rounded=0;whiteSpace=wrap;html=1;" parent="1" vertex="1">
          <mxGeometry x="810" y="450" width="140" height="120" as="geometry" />
        </mxCell>
        <mxCell id="mwf5anlVQ01OuYbf6Bpb-6" value="&lt;font style=&quot;font-size: 14px;&quot; face=&quot;GOST type B&quot;&gt;Малошумящий линейный регулятор напряжения&lt;/font&gt;" style="rounded=0;whiteSpace=wrap;html=1;" parent="1" vertex="1">
          <mxGeometry x="460" y="220" width="130" height="60" as="geometry" />
        </mxCell>
        <mxCell id="mwf5anlVQ01OuYbf6Bpb-20" style="edgeStyle=orthogonalEdgeStyle;rounded=0;orthogonalLoop=1;jettySize=auto;html=1;exitX=0.5;exitY=0;exitDx=0;exitDy=0;entryX=1;entryY=0.5;entryDx=0;entryDy=0;endArrow=none;endFill=0;startArrow=block;startFill=1;" parent="1" source="mwf5anlVQ01OuYbf6Bpb-8" target="mwf5anlVQ01OuYbf6Bpb-6" edge="1">
          <mxGeometry relative="1" as="geometry">
            <Array as="points">
              <mxPoint x="430" y="320" />
              <mxPoint x="600" y="320" />
              <mxPoint x="600" y="250" />
            </Array>
          </mxGeometry>
        </mxCell>
        <mxCell id="mwf5anlVQ01OuYbf6Bpb-28" style="edgeStyle=orthogonalEdgeStyle;rounded=0;orthogonalLoop=1;jettySize=auto;html=1;exitX=1;exitY=0.5;exitDx=0;exitDy=0;entryX=0;entryY=0.5;entryDx=0;entryDy=0;endArrow=block;endFill=1;dashed=1;" parent="1" source="mwf5anlVQ01OuYbf6Bpb-8" target="mwf5anlVQ01OuYbf6Bpb-9" edge="1">
          <mxGeometry relative="1" as="geometry" />
        </mxCell>
        <mxCell id="mwf5anlVQ01OuYbf6Bpb-8" value="&lt;font face=&quot;GOST type B&quot;&gt;&lt;span style=&quot;font-size: 14px;&quot;&gt;Малошумящий предварительный усилитель&amp;nbsp;&lt;/span&gt;&lt;/font&gt;" style="rounded=0;whiteSpace=wrap;html=1;" parent="1" vertex="1">
          <mxGeometry x="370" y="360" width="120" height="60" as="geometry" />
        </mxCell>
        <mxCell id="mwf5anlVQ01OuYbf6Bpb-29" style="edgeStyle=orthogonalEdgeStyle;rounded=0;orthogonalLoop=1;jettySize=auto;html=1;exitX=1;exitY=0.5;exitDx=0;exitDy=0;entryX=0;entryY=0.5;entryDx=0;entryDy=0;dashed=1;endArrow=block;endFill=1;" parent="1" source="mwf5anlVQ01OuYbf6Bpb-9" target="mwf5anlVQ01OuYbf6Bpb-10" edge="1">
          <mxGeometry relative="1" as="geometry" />
        </mxCell>
        <mxCell id="mwf5anlVQ01OuYbf6Bpb-9" value="&lt;font face=&quot;GOST type B&quot;&gt;&lt;span style=&quot;font-size: 14px;&quot;&gt;Усилитель с управляемым коэффициентом усиления&lt;/span&gt;&lt;/font&gt;" style="rounded=0;whiteSpace=wrap;html=1;" parent="1" vertex="1">
          <mxGeometry x="520" y="360" width="160" height="60" as="geometry" />
        </mxCell>
        <mxCell id="mwf5anlVQ01OuYbf6Bpb-31" style="edgeStyle=orthogonalEdgeStyle;rounded=0;orthogonalLoop=1;jettySize=auto;html=1;exitX=1;exitY=0.5;exitDx=0;exitDy=0;entryX=0;entryY=0.5;entryDx=0;entryDy=0;endArrow=block;endFill=1;dashed=1;" parent="1" source="mwf5anlVQ01OuYbf6Bpb-10" target="mwf5anlVQ01OuYbf6Bpb-11" edge="1">
          <mxGeometry relative="1" as="geometry" />
        </mxCell>
        <mxCell id="mwf5anlVQ01OuYbf6Bpb-10" value="&lt;font face=&quot;GOST type B&quot;&gt;&lt;span style=&quot;font-size: 14px;&quot;&gt;Фильтр нижних частот&lt;/span&gt;&lt;/font&gt;" style="rounded=0;whiteSpace=wrap;html=1;" parent="1" vertex="1">
          <mxGeometry x="710" y="360" width="70" height="60" as="geometry" />
        </mxCell>
        <mxCell id="mwf5anlVQ01OuYbf6Bpb-21" style="edgeStyle=orthogonalEdgeStyle;rounded=0;orthogonalLoop=1;jettySize=auto;html=1;exitX=0.25;exitY=0;exitDx=0;exitDy=0;entryX=1;entryY=0.5;entryDx=0;entryDy=0;endArrow=none;endFill=0;startArrow=block;startFill=1;" parent="1" source="mwf5anlVQ01OuYbf6Bpb-11" target="mwf5anlVQ01OuYbf6Bpb-6" edge="1">
          <mxGeometry relative="1" as="geometry">
            <Array as="points">
              <mxPoint x="845" y="320" />
              <mxPoint x="600" y="320" />
              <mxPoint x="600" y="250" />
            </Array>
          </mxGeometry>
        </mxCell>
        <mxCell id="mwf5anlVQ01OuYbf6Bpb-24" style="edgeStyle=orthogonalEdgeStyle;rounded=0;orthogonalLoop=1;jettySize=auto;html=1;exitX=0.5;exitY=1;exitDx=0;exitDy=0;entryX=0.5;entryY=0;entryDx=0;entryDy=0;endArrow=block;endFill=1;dashed=1;dashPattern=1 1;" parent="1" source="mwf5anlVQ01OuYbf6Bpb-11" target="mwf5anlVQ01OuYbf6Bpb-5" edge="1">
          <mxGeometry relative="1" as="geometry" />
        </mxCell>
        <mxCell id="mwf5anlVQ01OuYbf6Bpb-11" value="&lt;font face=&quot;GOST type B&quot;&gt;&lt;span style=&quot;font-size: 14px;&quot;&gt;Аналого-цифровой преобразователь&amp;nbsp;&lt;/span&gt;&lt;/font&gt;" style="rounded=0;whiteSpace=wrap;html=1;" parent="1" vertex="1">
          <mxGeometry x="810" y="360" width="140" height="60" as="geometry" />
        </mxCell>
        <mxCell id="mwf5anlVQ01OuYbf6Bpb-22" style="edgeStyle=orthogonalEdgeStyle;rounded=0;orthogonalLoop=1;jettySize=auto;html=1;exitX=0.75;exitY=1;exitDx=0;exitDy=0;entryX=0.75;entryY=0;entryDx=0;entryDy=0;endArrow=block;endFill=1;" parent="1" source="mwf5anlVQ01OuYbf6Bpb-14" target="mwf5anlVQ01OuYbf6Bpb-11" edge="1">
          <mxGeometry relative="1" as="geometry" />
        </mxCell>
        <mxCell id="mwf5anlVQ01OuYbf6Bpb-23" style="edgeStyle=orthogonalEdgeStyle;rounded=0;orthogonalLoop=1;jettySize=auto;html=1;exitDx=0;exitDy=0;entryX=1;entryY=0.5;entryDx=0;entryDy=0;endArrow=block;endFill=1;" parent="1" source="mwf5anlVQ01OuYbf6Bpb-49" target="mwf5anlVQ01OuYbf6Bpb-5" edge="1">
          <mxGeometry relative="1" as="geometry">
            <Array as="points">
              <mxPoint x="915" y="320" />
              <mxPoint x="970" y="320" />
              <mxPoint x="970" y="510" />
            </Array>
          </mxGeometry>
        </mxCell>
        <mxCell id="mwf5anlVQ01OuYbf6Bpb-14" value="&lt;font style=&quot;font-size: 14px;&quot; face=&quot;GOST type B&quot;&gt;Импульстный преобразователь напряжения&lt;/font&gt;" style="rounded=0;whiteSpace=wrap;html=1;" parent="1" vertex="1">
          <mxGeometry x="810" y="220" width="140" height="60" as="geometry" />
        </mxCell>
        <mxCell id="mwf5anlVQ01OuYbf6Bpb-18" style="edgeStyle=orthogonalEdgeStyle;rounded=0;orthogonalLoop=1;jettySize=auto;html=1;exitX=1;exitY=0.5;exitDx=0;exitDy=0;entryX=0;entryY=0.5;entryDx=0;entryDy=0;endArrow=block;endFill=1;" parent="1" source="mwf5anlVQ01OuYbf6Bpb-15" target="mwf5anlVQ01OuYbf6Bpb-6" edge="1">
          <mxGeometry relative="1" as="geometry" />
        </mxCell>
        <mxCell id="mwf5anlVQ01OuYbf6Bpb-15" value="&lt;font face=&quot;GOST type B&quot;&gt;&lt;span style=&quot;font-size: 14px;&quot;&gt;Фильтр нижних частот&lt;/span&gt;&lt;/font&gt;" style="rounded=0;whiteSpace=wrap;html=1;" parent="1" vertex="1">
          <mxGeometry x="370" y="220" width="70" height="60" as="geometry" />
        </mxCell>
        <mxCell id="mwf5anlVQ01OuYbf6Bpb-19" style="edgeStyle=orthogonalEdgeStyle;rounded=0;orthogonalLoop=1;jettySize=auto;html=1;exitDx=0;exitDy=0;strokeColor=default;endArrow=block;endFill=1;" parent="1" source="mwf5anlVQ01OuYbf6Bpb-47" edge="1">
          <mxGeometry relative="1" as="geometry">
            <mxPoint x="600" y="360" as="targetPoint" />
            <Array as="points">
              <mxPoint x="600" y="250" />
              <mxPoint x="600" y="360" />
            </Array>
          </mxGeometry>
        </mxCell>
        <mxCell id="mwf5anlVQ01OuYbf6Bpb-34" style="edgeStyle=orthogonalEdgeStyle;rounded=0;orthogonalLoop=1;jettySize=auto;html=1;exitDx=0;exitDy=0;entryX=0.5;entryY=0;entryDx=0;entryDy=0;endArrow=block;endFill=1;" parent="1" source="mwf5anlVQ01OuYbf6Bpb-52" target="mwf5anlVQ01OuYbf6Bpb-15" edge="1">
          <mxGeometry relative="1" as="geometry" />
        </mxCell>
        <mxCell id="mwf5anlVQ01OuYbf6Bpb-36" style="edgeStyle=orthogonalEdgeStyle;rounded=0;orthogonalLoop=1;jettySize=auto;html=1;exitX=1;exitY=0.5;exitDx=0;exitDy=0;entryX=0.5;entryY=0;entryDx=0;entryDy=0;endArrow=block;endFill=1;" parent="1" source="mwf5anlVQ01OuYbf6Bpb-33" target="mwf5anlVQ01OuYbf6Bpb-14" edge="1">
          <mxGeometry relative="1" as="geometry" />
        </mxCell>
        <mxCell id="mwf5anlVQ01OuYbf6Bpb-33" value="" style="ellipse;whiteSpace=wrap;html=1;fillColor=#050505;" parent="1" vertex="1">
          <mxGeometry x="120" y="170" width="10" height="10" as="geometry" />
        </mxCell>
        <mxCell id="mwf5anlVQ01OuYbf6Bpb-41" style="edgeStyle=orthogonalEdgeStyle;rounded=0;orthogonalLoop=1;jettySize=auto;html=1;exitX=1;exitY=0.5;exitDx=0;exitDy=0;entryX=0;entryY=0.25;entryDx=0;entryDy=0;endArrow=none;endFill=0;startArrow=block;startFill=1;dashed=1;dashPattern=1 1;" parent="1" source="mwf5anlVQ01OuYbf6Bpb-37" target="mwf5anlVQ01OuYbf6Bpb-5" edge="1">
          <mxGeometry relative="1" as="geometry" />
        </mxCell>
        <mxCell id="mwf5anlVQ01OuYbf6Bpb-37" value="&lt;font style=&quot;font-size: 14px;&quot; face=&quot;GOST type B&quot;&gt;Светодиодная индикация&lt;/font&gt;" style="rounded=0;whiteSpace=wrap;html=1;" parent="1" vertex="1">
          <mxGeometry x="610" y="460" width="170" height="40" as="geometry" />
        </mxCell>
        <mxCell id="mwf5anlVQ01OuYbf6Bpb-42" style="edgeStyle=orthogonalEdgeStyle;rounded=0;orthogonalLoop=1;jettySize=auto;html=1;exitX=1;exitY=0.5;exitDx=0;exitDy=0;entryX=0;entryY=0.75;entryDx=0;entryDy=0;dashed=1;dashPattern=1 1;endArrow=block;endFill=1;" parent="1" source="mwf5anlVQ01OuYbf6Bpb-38" target="mwf5anlVQ01OuYbf6Bpb-5" edge="1">
          <mxGeometry relative="1" as="geometry" />
        </mxCell>
        <mxCell id="mwf5anlVQ01OuYbf6Bpb-38" value="&lt;font face=&quot;GOST type B&quot; style=&quot;font-size: 14px;&quot;&gt;Устройство пользовательского ввода&lt;/font&gt;" style="rounded=0;whiteSpace=wrap;html=1;" parent="1" vertex="1">
          <mxGeometry x="610" y="520" width="170" height="40" as="geometry" />
        </mxCell>
        <mxCell id="mwf5anlVQ01OuYbf6Bpb-47" value="" style="shape=waypoint;sketch=0;fillStyle=solid;size=6;pointerEvents=1;points=[];fillColor=none;resizable=0;rotatable=0;perimeter=centerPerimeter;snapToPoint=1;" parent="1" vertex="1">
          <mxGeometry x="590" y="310" width="20" height="20" as="geometry" />
        </mxCell>
        <mxCell id="mwf5anlVQ01OuYbf6Bpb-51" value="" style="edgeStyle=orthogonalEdgeStyle;rounded=0;orthogonalLoop=1;jettySize=auto;html=1;exitX=0.75;exitY=1;exitDx=0;exitDy=0;entryDx=0;entryDy=0;endArrow=none;endFill=0;" parent="1" source="mwf5anlVQ01OuYbf6Bpb-14" target="mwf5anlVQ01OuYbf6Bpb-49" edge="1">
          <mxGeometry relative="1" as="geometry">
            <mxPoint x="915" y="280" as="sourcePoint" />
            <mxPoint x="950" y="510" as="targetPoint" />
            <Array as="points" />
          </mxGeometry>
        </mxCell>
        <mxCell id="mwf5anlVQ01OuYbf6Bpb-49" value="" style="shape=waypoint;sketch=0;fillStyle=solid;size=6;pointerEvents=1;points=[];fillColor=none;resizable=0;rotatable=0;perimeter=centerPerimeter;snapToPoint=1;" parent="1" vertex="1">
          <mxGeometry x="905" y="310" width="20" height="20" as="geometry" />
        </mxCell>
        <mxCell id="mwf5anlVQ01OuYbf6Bpb-53" value="" style="edgeStyle=orthogonalEdgeStyle;rounded=0;orthogonalLoop=1;jettySize=auto;html=1;exitX=1;exitY=0.5;exitDx=0;exitDy=0;entryDx=0;entryDy=0;endArrow=none;endFill=0;" parent="1" source="mwf5anlVQ01OuYbf6Bpb-33" target="mwf5anlVQ01OuYbf6Bpb-52" edge="1">
          <mxGeometry relative="1" as="geometry">
            <mxPoint x="130" y="175" as="sourcePoint" />
            <mxPoint x="405" y="220" as="targetPoint" />
          </mxGeometry>
        </mxCell>
        <mxCell id="mwf5anlVQ01OuYbf6Bpb-52" value="" style="shape=waypoint;sketch=0;fillStyle=solid;size=6;pointerEvents=1;points=[];fillColor=none;resizable=0;rotatable=0;perimeter=centerPerimeter;snapToPoint=1;" parent="1" vertex="1">
          <mxGeometry x="395" y="165" width="20" height="20" as="geometry" />
        </mxCell>
        <mxCell id="mwf5anlVQ01OuYbf6Bpb-55" style="edgeStyle=orthogonalEdgeStyle;rounded=0;orthogonalLoop=1;jettySize=auto;html=1;exitX=0;exitY=0.5;exitDx=0;exitDy=0;entryX=1;entryY=0.75;entryDx=0;entryDy=0;endArrow=block;endFill=1;startArrow=block;startFill=1;dashed=1;dashPattern=1 1;" parent="1" source="mwf5anlVQ01OuYbf6Bpb-54" target="mwf5anlVQ01OuYbf6Bpb-5" edge="1">
          <mxGeometry relative="1" as="geometry" />
        </mxCell>
        <mxCell id="mwf5anlVQ01OuYbf6Bpb-54" value="" style="ellipse;whiteSpace=wrap;html=1;fillColor=#050505;" parent="1" vertex="1">
          <mxGeometry x="1050" y="535" width="10" height="10" as="geometry" />
        </mxCell>
        <mxCell id="mwf5anlVQ01OuYbf6Bpb-56" value="&lt;font&gt;Блок сбора данных&lt;/font&gt;" style="text;strokeColor=none;fillColor=none;html=1;fontSize=18;fontStyle=0;verticalAlign=middle;align=center;fontFamily=GOST type B;" parent="1" vertex="1">
          <mxGeometry x="120" y="555" width="260" height="60" as="geometry" />
        </mxCell>
        <mxCell id="mwf5anlVQ01OuYbf6Bpb-57" value="&lt;font&gt;Печатная плата&lt;/font&gt;" style="text;strokeColor=none;fillColor=none;html=1;fontSize=18;fontStyle=0;verticalAlign=middle;align=center;fontFamily=GOST type B;" parent="1" vertex="1">
          <mxGeometry x="305" y="535" width="260" height="60" as="geometry" />
        </mxCell>
        <mxCell id="mwf5anlVQ01OuYbf6Bpb-58" value="&lt;font&gt;2&lt;/font&gt;" style="text;strokeColor=none;fillColor=none;html=1;fontSize=18;fontStyle=0;verticalAlign=middle;align=center;fontFamily=GOST type B;" parent="1" vertex="1">
          <mxGeometry x="1007.5" y="485" width="95" height="60" as="geometry" />
        </mxCell>
        <mxCell id="mwf5anlVQ01OuYbf6Bpb-59" value="&lt;font&gt;1&lt;/font&gt;" style="text;strokeColor=none;fillColor=none;html=1;fontSize=18;fontStyle=0;verticalAlign=middle;align=center;fontFamily=GOST type B;" parent="1" vertex="1">
          <mxGeometry x="77.5" y="120" width="95" height="60" as="geometry" />
        </mxCell>
        <mxCell id="mwf5anlVQ01OuYbf6Bpb-60" value="" style="rounded=0;whiteSpace=wrap;html=1;spacing=2;strokeWidth=1;" parent="1" vertex="1">
          <mxGeometry x="820" y="5" width="200" height="95" as="geometry" />
        </mxCell>
        <mxCell id="mwf5anlVQ01OuYbf6Bpb-61" value="&lt;font&gt;Условные обозначения&lt;/font&gt;" style="text;strokeColor=none;fillColor=none;html=1;fontSize=18;fontStyle=0;verticalAlign=middle;align=left;fontFamily=GOST type B;" parent="1" vertex="1">
          <mxGeometry x="830" y="-10" width="260" height="60" as="geometry" />
        </mxCell>
        <mxCell id="mwf5anlVQ01OuYbf6Bpb-63" value="" style="endArrow=none;html=1;rounded=0;" parent="1" edge="1">
          <mxGeometry width="50" height="50" relative="1" as="geometry">
            <mxPoint x="835" y="44.9" as="sourcePoint" />
            <mxPoint x="875" y="44.9" as="targetPoint" />
          </mxGeometry>
        </mxCell>
        <mxCell id="mwf5anlVQ01OuYbf6Bpb-65" value="" style="endArrow=none;dashed=1;html=1;rounded=0;" parent="1" edge="1">
          <mxGeometry width="50" height="50" relative="1" as="geometry">
            <mxPoint x="835" y="64.9" as="sourcePoint" />
            <mxPoint x="875" y="64.9" as="targetPoint" />
          </mxGeometry>
        </mxCell>
        <mxCell id="mwf5anlVQ01OuYbf6Bpb-67" style="edgeStyle=orthogonalEdgeStyle;rounded=0;orthogonalLoop=1;jettySize=auto;html=1;exitX=1;exitY=0.5;exitDx=0;exitDy=0;endArrow=none;endFill=0;dashed=1;dashPattern=1 1;" parent="1" edge="1">
          <mxGeometry relative="1" as="geometry">
            <mxPoint x="835" y="84.9" as="sourcePoint" />
            <mxPoint x="875" y="84.9" as="targetPoint" />
            <Array as="points">
              <mxPoint x="855" y="84.9" />
              <mxPoint x="855" y="84.9" />
            </Array>
          </mxGeometry>
        </mxCell>
        <mxCell id="mwf5anlVQ01OuYbf6Bpb-68" value="&lt;font style=&quot;font-size: 14px;&quot;&gt;Шина питания&lt;/font&gt;" style="text;strokeColor=none;fillColor=none;html=1;fontSize=18;fontStyle=0;verticalAlign=middle;align=left;fontFamily=GOST type B;" parent="1" vertex="1">
          <mxGeometry x="885" y="35" width="100" height="20" as="geometry" />
        </mxCell>
        <mxCell id="mwf5anlVQ01OuYbf6Bpb-69" value="&lt;span style=&quot;font-size: 14px;&quot;&gt;Аналоговая линия&lt;/span&gt;" style="text;strokeColor=none;fillColor=none;html=1;fontSize=18;fontStyle=0;verticalAlign=middle;align=left;fontFamily=GOST type B;" parent="1" vertex="1">
          <mxGeometry x="885" y="55" width="100" height="20" as="geometry" />
        </mxCell>
        <mxCell id="mwf5anlVQ01OuYbf6Bpb-70" value="&lt;span style=&quot;font-size: 14px;&quot;&gt;Цифровая линия&lt;/span&gt;" style="text;strokeColor=none;fillColor=none;html=1;fontSize=18;fontStyle=0;verticalAlign=middle;align=left;fontFamily=GOST type B;" parent="1" vertex="1">
          <mxGeometry x="885" y="75" width="100" height="20" as="geometry" />
        </mxCell>
        <mxCell id="frwH7N_kfoREqMV62jRQ-1" value="&lt;font style=&quot;font-size: 14px;&quot;&gt;Примечания:&lt;/font&gt;&lt;div&gt;&lt;div&gt;&lt;font style=&quot;font-size: 14px;&quot;&gt;1 - Источник постоянного тока 9В 0.5А&lt;/font&gt;&lt;/div&gt;&lt;div&gt;&lt;font style=&quot;font-size: 14px;&quot;&gt;2 - USB подключение для отладки и прошивки&lt;/font&gt;&lt;/div&gt;&lt;/div&gt;" style="text;strokeColor=none;fillColor=none;html=1;fontSize=18;fontStyle=0;verticalAlign=middle;align=left;fontFamily=GOST type B;" parent="1" vertex="1">
          <mxGeometry x="170" y="25" width="100" height="20" as="geometry" />
        </mxCell>
      </root>
    </mxGraphModel>
  </diagram>
</mxfile>
